<?xml version="1.0" encoding="UTF-8" standalone="no"?>
<svg width="600" height="600" viewBox="0 0 600 600" xmlns="http://www.w3.org/2000/svg">
    <g transform="translate(300,300)">
        <path d="M118.8,-192.2C149.3,-165.2,166,-124.4,192,-83.1C217.9,-41.9,253,-0.2,249.2,36.8C245.4,73.9,202.8,106.4,162.7,126.2C122.5,146,84.8,153.1,52.1,150.3C19.4,147.4,-8.2,134.6,-33.3,122.9C-58.4,111.1,-81,100.4,-108,84.9C-135,69.3,-166.5,48.9,-186.8,16.8C-207.2,-15.4,-216.4,-59.2,-201.9,-92.8C-187.5,-126.4,-149.4,-149.9,-111.8,-173.5C-74.2,-197.2,-37.1,-221.1,3.5,-226.6C44.2,-232,88.3,-219.1,118.8,-192.2Z" fill="rgba(255,255,255,0.1)"/>
    </g>
</svg>